<svg width="33" height="23" viewBox="0 0 33 23" fill="none" xmlns="http://www.w3.org/2000/svg">
<path fill-rule="evenodd" clip-rule="evenodd" d="M15.1762 2.8428C15.7828 3.75197 16.088 4.8348 16.088 6.09946C16.088 7.4009 15.7828 8.449 15.1685 9.23967C14.8214 9.68302 14.3159 10.0896 13.6463 10.4553C14.663 10.8537 15.428 11.4809 15.9487 12.339C16.4657 13.1951 16.7232 14.2391 16.7232 15.4649C16.7232 16.7275 16.4295 17.8635 15.8362 18.8646C15.4604 19.5286 14.9892 20.0904 14.4265 20.544C13.7913 21.065 13.0435 21.4205 12.1774 21.6146C11.3114 21.8087 10.3748 21.9026 9.36185 21.9026H0.386658V0.568863H10.0123C12.4426 0.609724 14.1613 1.36566 15.1762 2.8428ZM4.35825 4.275V8.98224H9.20161C10.0638 8.98224 10.7677 8.80449 11.3095 8.45104C11.8455 8.09963 12.1183 7.47445 12.1183 6.57959C12.1183 5.58461 11.7616 4.92878 11.0482 4.60802C10.432 4.38737 9.64799 4.275 8.6942 4.275H4.35825ZM4.35825 12.5106V18.1985H9.19398C10.0581 18.1985 10.7315 18.0739 11.2122 17.8247C12.0859 17.3588 12.5208 16.4722 12.5208 15.1625C12.5208 14.0491 12.1011 13.289 11.2542 12.8723C10.7792 12.6414 10.1153 12.5188 9.26266 12.5106H4.35825ZM28.7658 6.44883C29.7959 6.94121 30.6429 7.71962 31.3086 8.78202C31.9171 9.71979 32.3082 10.8067 32.4856 12.0428C32.5886 12.7681 32.6325 13.8121 32.6134 15.1748H21.8832C21.9462 16.7582 22.4555 17.8676 23.4246 18.503C24.014 18.8993 24.7217 19.0955 25.5496 19.0955C26.4233 19.0955 27.1386 18.8564 27.6861 18.3743C27.9875 18.1127 28.2508 17.7511 28.4797 17.2873H32.4112C32.3082 18.2231 31.8313 19.1731 30.9843 20.1415C29.6662 21.6738 27.8177 22.44 25.4447 22.44C23.4837 22.44 21.7516 21.7944 20.258 20.4991C18.7548 19.2058 18.0089 17.0994 18.0089 14.186C18.0089 11.4503 18.6842 9.35612 20.0348 7.89533C21.3892 6.44066 23.1442 5.70924 25.3016 5.70924C26.5835 5.70924 27.7395 5.95441 28.7658 6.44883ZM23.0049 10.012C22.4612 10.6126 22.1179 11.4278 21.9786 12.4534H28.6151C28.5464 11.3583 28.2012 10.5288 27.5907 9.96087C26.9727 9.39494 26.2116 9.11096 25.3035 9.11096C24.3173 9.11096 23.5486 9.41129 23.0049 10.012ZM20.9829 4.21984H29.5174V1.56588H20.9829V4.21984Z" fill="white"/>
</svg>
