<svg width="43" height="34" viewBox="0 0 43 34" fill="none" xmlns="http://www.w3.org/2000/svg">
<g clip-path="url(#clip0_3_161)">
<path d="M15.7366 4.2979H9.71769L0 16.5261L9.71769 28.7543H15.7366L6.01888 16.5261L15.7366 4.2979ZM27.2634 4.2979H33.2823L43 16.5261L33.2823 28.7543H27.2634L36.9811 16.5261L27.2634 4.2979ZM24.5549 0.0131715L26.6405 0.478466C26.9695 0.55211 27.1724 0.86677 27.099 1.18143L19.2254 33.5479C19.1484 33.8592 18.8195 34.0567 18.4906 33.9864L16.4084 33.5211C16.0795 33.4475 15.8765 33.1328 15.95 32.8181L23.8236 0.451687C23.9006 0.140374 24.2295 -0.0571249 24.5549 0.0131715Z" fill="#D52D88"/>
</g>
<defs>
<clipPath id="clip0_3_161">
<rect width="43" height="34" fill="white"/>
</clipPath>
</defs>
</svg>
