<svg width="34" height="28" viewBox="0 0 34 28" fill="none" xmlns="http://www.w3.org/2000/svg">
<g clip-path="url(#clip0_3_157)">
<path d="M12.639 3.90694H7.96632L0.42218 13.429L7.96632 22.951H12.639L5.09482 13.429L12.639 3.90694ZM21.5876 3.90694H26.2603L33.8044 13.429L26.2603 22.951H21.5876L29.1318 13.429L21.5876 3.90694ZM19.4849 0.570452L21.1041 0.932774C21.3594 0.990119 21.517 1.23514 21.4599 1.48017L15.3475 26.6837C15.2877 26.9261 15.0323 27.0799 14.777 27.0252L13.1606 26.6628C12.9052 26.6055 12.7476 26.3605 12.8047 26.1154L18.9171 0.91192C18.9769 0.669504 19.2323 0.515712 19.4849 0.570452Z" fill="white"/>
</g>
<defs>
<clipPath id="clip0_3_157">
<rect width="33.3822" height="26.4756" fill="white" transform="translate(0.42218 0.559967)"/>
</clipPath>
</defs>
</svg>
