<svg width="28" height="29" viewBox="0 0 28 29" fill="none" xmlns="http://www.w3.org/2000/svg">
<path fill-rule="evenodd" clip-rule="evenodd" d="M6.80442 14.7112C6.80442 10.7936 9.98018 7.61781 13.8978 7.61781C17.8153 7.61781 20.9911 10.7936 20.9911 14.7112C20.9911 18.6287 17.8153 21.8045 13.8978 21.8045C9.98018 21.8045 6.80442 18.6287 6.80442 14.7112ZM13.8978 19.3156C11.3548 19.3156 9.2933 17.2541 9.2933 14.7112C9.2933 12.1682 11.3548 10.1067 13.8978 10.1067C16.4407 10.1067 18.5022 12.1682 18.5022 14.7112C18.5022 17.2541 16.4407 19.3156 13.8978 19.3156Z" fill="url(#paint0_linear_3_153)"/>
<path fill-rule="evenodd" clip-rule="evenodd" d="M6.80442 14.7112C6.80442 10.7936 9.98018 7.61781 13.8978 7.61781C17.8153 7.61781 20.9911 10.7936 20.9911 14.7112C20.9911 18.6287 17.8153 21.8045 13.8978 21.8045C9.98018 21.8045 6.80442 18.6287 6.80442 14.7112ZM13.8978 19.3156C11.3548 19.3156 9.2933 17.2541 9.2933 14.7112C9.2933 12.1682 11.3548 10.1067 13.8978 10.1067C16.4407 10.1067 18.5022 12.1682 18.5022 14.7112C18.5022 17.2541 16.4407 19.3156 13.8978 19.3156Z" fill="white"/>
<path d="M21.2713 8.99514C22.1868 8.99514 22.929 8.25304 22.929 7.33756C22.929 6.42209 22.1868 5.67993 21.2713 5.67993C20.3559 5.67993 19.6137 6.42209 19.6137 7.33756C19.6137 8.25304 20.3559 8.99514 21.2713 8.99514Z" fill="url(#paint1_linear_3_153)"/>
<path d="M21.2713 8.99514C22.1868 8.99514 22.929 8.25304 22.929 7.33756C22.929 6.42209 22.1868 5.67993 21.2713 5.67993C20.3559 5.67993 19.6137 6.42209 19.6137 7.33756C19.6137 8.25304 20.3559 8.99514 21.2713 8.99514Z" fill="white"/>
<path fill-rule="evenodd" clip-rule="evenodd" d="M13.8978 0.897804C10.1463 0.897804 9.67586 0.913706 8.20253 0.98093C6.73226 1.04799 5.72812 1.28152 4.84949 1.62301C3.94114 1.97597 3.1708 2.44829 2.40282 3.21622C1.6349 3.98419 1.16258 4.75453 0.809621 5.66288C0.468127 6.54151 0.234597 7.54565 0.167537 9.01592C0.100313 10.4893 0.0844116 10.9597 0.0844116 14.7112C0.0844116 18.4626 0.100313 18.933 0.167537 20.4064C0.234597 21.8766 0.468127 22.8808 0.809621 23.7594C1.16258 24.6677 1.6349 25.4381 2.40282 26.2061C3.1708 26.974 3.94114 27.4463 4.84949 27.7993C5.72812 28.1408 6.73226 28.3743 8.20253 28.4413C9.67586 28.5086 10.1463 28.5245 13.8978 28.5245C17.6492 28.5245 18.1196 28.5086 19.593 28.4413C21.0632 28.3743 22.0674 28.1408 22.946 27.7993C23.8544 27.4463 24.6247 26.974 25.3927 26.2061C26.1606 25.4381 26.6329 24.6677 26.9859 23.7594C27.3274 22.8808 27.5609 21.8766 27.628 20.4064C27.6952 18.933 27.7111 18.4626 27.7111 14.7112C27.7111 10.9597 27.6952 10.4893 27.628 9.01592C27.5609 7.54565 27.3274 6.54151 26.9859 5.66288C26.6329 4.75453 26.1606 3.98419 25.3927 3.21622C24.6247 2.44829 23.8544 1.97597 22.946 1.62301C22.0674 1.28152 21.0632 1.04799 19.593 0.98093C18.1196 0.913706 17.6492 0.897804 13.8978 0.897804ZM13.8978 3.38669C17.5861 3.38669 18.023 3.40078 19.4795 3.46724C20.8263 3.52865 21.5577 3.75368 22.0445 3.94285C22.6892 4.19343 23.1494 4.49276 23.6327 4.97616C24.1161 5.45951 24.4155 5.91966 24.666 6.56443C24.8552 7.05117 25.0802 7.78258 25.1417 9.12937C25.2081 10.5859 25.2222 11.0228 25.2222 14.7112C25.2222 18.3994 25.2081 18.8363 25.1417 20.2929C25.0802 21.6397 24.8552 22.3711 24.666 22.8578C24.4155 23.5026 24.1161 23.9628 23.6327 24.4461C23.1494 24.9295 22.6892 25.2288 22.0445 25.4794C21.5577 25.6686 20.8263 25.8936 19.4795 25.955C18.0232 26.0215 17.5863 26.0356 13.8978 26.0356C10.2092 26.0356 9.77237 26.0215 8.31598 25.955C6.96919 25.8936 6.23778 25.6686 5.75104 25.4794C5.10627 25.2288 4.64612 24.9295 4.16277 24.4461C3.67943 23.9628 3.38004 23.5026 3.12946 22.8578C2.94029 22.3711 2.71526 21.6397 2.65385 20.2929C2.58739 18.8363 2.5733 18.3994 2.5733 14.7112C2.5733 11.0228 2.58739 10.5859 2.65385 9.12937C2.71526 7.78258 2.94029 7.05117 3.12946 6.56443C3.38004 5.91966 3.67937 5.45951 4.16277 4.97616C4.64612 4.49276 5.10627 4.19343 5.75104 3.94285C6.23778 3.75368 6.96919 3.52865 8.31598 3.46724C9.77254 3.40078 10.2094 3.38669 13.8978 3.38669Z" fill="url(#paint2_linear_3_153)"/>
<path fill-rule="evenodd" clip-rule="evenodd" d="M13.8978 0.897804C10.1463 0.897804 9.67586 0.913706 8.20253 0.98093C6.73226 1.04799 5.72812 1.28152 4.84949 1.62301C3.94114 1.97597 3.1708 2.44829 2.40282 3.21622C1.6349 3.98419 1.16258 4.75453 0.809621 5.66288C0.468127 6.54151 0.234597 7.54565 0.167537 9.01592C0.100313 10.4893 0.0844116 10.9597 0.0844116 14.7112C0.0844116 18.4626 0.100313 18.933 0.167537 20.4064C0.234597 21.8766 0.468127 22.8808 0.809621 23.7594C1.16258 24.6677 1.6349 25.4381 2.40282 26.2061C3.1708 26.974 3.94114 27.4463 4.84949 27.7993C5.72812 28.1408 6.73226 28.3743 8.20253 28.4413C9.67586 28.5086 10.1463 28.5245 13.8978 28.5245C17.6492 28.5245 18.1196 28.5086 19.593 28.4413C21.0632 28.3743 22.0674 28.1408 22.946 27.7993C23.8544 27.4463 24.6247 26.974 25.3927 26.2061C26.1606 25.4381 26.6329 24.6677 26.9859 23.7594C27.3274 22.8808 27.5609 21.8766 27.628 20.4064C27.6952 18.933 27.7111 18.4626 27.7111 14.7112C27.7111 10.9597 27.6952 10.4893 27.628 9.01592C27.5609 7.54565 27.3274 6.54151 26.9859 5.66288C26.6329 4.75453 26.1606 3.98419 25.3927 3.21622C24.6247 2.44829 23.8544 1.97597 22.946 1.62301C22.0674 1.28152 21.0632 1.04799 19.593 0.98093C18.1196 0.913706 17.6492 0.897804 13.8978 0.897804ZM13.8978 3.38669C17.5861 3.38669 18.023 3.40078 19.4795 3.46724C20.8263 3.52865 21.5577 3.75368 22.0445 3.94285C22.6892 4.19343 23.1494 4.49276 23.6327 4.97616C24.1161 5.45951 24.4155 5.91966 24.666 6.56443C24.8552 7.05117 25.0802 7.78258 25.1417 9.12937C25.2081 10.5859 25.2222 11.0228 25.2222 14.7112C25.2222 18.3994 25.2081 18.8363 25.1417 20.2929C25.0802 21.6397 24.8552 22.3711 24.666 22.8578C24.4155 23.5026 24.1161 23.9628 23.6327 24.4461C23.1494 24.9295 22.6892 25.2288 22.0445 25.4794C21.5577 25.6686 20.8263 25.8936 19.4795 25.955C18.0232 26.0215 17.5863 26.0356 13.8978 26.0356C10.2092 26.0356 9.77237 26.0215 8.31598 25.955C6.96919 25.8936 6.23778 25.6686 5.75104 25.4794C5.10627 25.2288 4.64612 24.9295 4.16277 24.4461C3.67943 23.9628 3.38004 23.5026 3.12946 22.8578C2.94029 22.3711 2.71526 21.6397 2.65385 20.2929C2.58739 18.8363 2.5733 18.3994 2.5733 14.7112C2.5733 11.0228 2.58739 10.5859 2.65385 9.12937C2.71526 7.78258 2.94029 7.05117 3.12946 6.56443C3.38004 5.91966 3.67937 5.45951 4.16277 4.97616C4.64612 4.49276 5.10627 4.19343 5.75104 3.94285C6.23778 3.75368 6.96919 3.52865 8.31598 3.46724C9.77254 3.40078 10.2094 3.38669 13.8978 3.38669Z" fill="white"/>
<defs>
<linearGradient id="paint0_linear_3_153" x1="1.69634" y1="2.35022" x2="10.4068" y2="36.0433" gradientUnits="userSpaceOnUse">
<stop stop-color="#4E60D3"/>
<stop offset="0.142763" stop-color="#913BAF"/>
<stop offset="0.761458" stop-color="#D52D88"/>
<stop offset="1" stop-color="#F26D4F"/>
</linearGradient>
<linearGradient id="paint1_linear_3_153" x1="1.69634" y1="2.35022" x2="10.4068" y2="36.0433" gradientUnits="userSpaceOnUse">
<stop stop-color="#4E60D3"/>
<stop offset="0.142763" stop-color="#913BAF"/>
<stop offset="0.761458" stop-color="#D52D88"/>
<stop offset="1" stop-color="#F26D4F"/>
</linearGradient>
<linearGradient id="paint2_linear_3_153" x1="1.69634" y1="2.35022" x2="10.4068" y2="36.0433" gradientUnits="userSpaceOnUse">
<stop stop-color="#4E60D3"/>
<stop offset="0.142763" stop-color="#913BAF"/>
<stop offset="0.761458" stop-color="#D52D88"/>
<stop offset="1" stop-color="#F26D4F"/>
</linearGradient>
</defs>
</svg>
