<svg width="25" height="25" viewBox="0 0 25 25" fill="none" xmlns="http://www.w3.org/2000/svg">
<path d="M21.3012 21.3016H17.597V15.5005C17.597 14.1172 17.5723 12.3364 15.6704 12.3364C13.7411 12.3364 13.4459 13.8436 13.4459 15.3998V21.3012H9.74171V9.37181H13.2978V11.0021H13.3475C14.0726 9.76229 15.4209 9.0218 16.8561 9.07508C20.6105 9.07508 21.3027 11.5446 21.3027 14.7573L21.3012 21.3016ZM5.56212 7.74115C4.37492 7.74136 3.41234 6.7791 3.41213 5.59188C3.41191 4.40466 4.37415 3.44206 5.56134 3.44185C6.74854 3.44163 7.71112 4.40389 7.71133 5.59111C7.71144 6.16123 7.48506 6.70805 7.082 7.11126C6.67895 7.51447 6.13223 7.74105 5.56212 7.74115ZM7.41422 21.3016H3.70615V9.37181H7.41422V21.3016ZM23.1479 0.00186414H1.84478C0.837949 -0.00949818 0.0122878 0.797011 0 1.80385V23.1958C0.0118671 24.2031 0.837461 25.0104 1.84478 24.9999H23.1479C24.1572 25.0124 24.986 24.2051 25 23.1958V1.80231C24.9856 0.793479 24.1567 -0.0129846 23.1479 0.000158387" fill="white"/>
</svg>
